<svg xmlns="http://www.w3.org/2000/svg" xmlns:xlink="http://www.w3.org/1999/xlink" width="576" height="770pt" viewBox="0 0 432 770.1"><g id="graph0" class="graph" transform="scale(1 1) rotate(0) translate(4 766.1)"><title>G</title><polygon fill="#fff" stroke="none" points="-4 4 -4 -766.1 428 -766.1 428 4 -4 4"/><g id="clust1" class="cluster"><title>cluster_inputs</title><polygon fill="none" stroke="#000" points="61 -677.6 61 -754.1 279 -754.1 279 -677.6 61 -677.6"/><text x="170" y="-736.8" font-family="Times,serif" font-size="14" text-anchor="middle">Upstream Frontends</text></g><g id="clust2" class="cluster"><title>cluster_mlir</title><polygon fill="none" stroke="#000" points="33 -593.1 33 -669.6 315 -669.6 315 -593.1 33 -593.1"/><text x="174" y="-652.3" font-family="Times,serif" font-size="14" text-anchor="middle">Upstream MLIR</text></g><g id="clust5" class="cluster"><title>cluster_fhe</title><polygon fill="none" stroke="#000" points="94 -220.5 94 -337.5 310 -337.5 310 -220.5 94 -220.5"/><text x="202" y="-320.2" font-family="Times,serif" font-size="14" text-anchor="middle">Core Dialects</text></g><g id="clust6" class="cluster"><title>cluster_fhe_schemes</title><polygon fill="none" stroke="#000" points="164 -228.5 164 -305 302 -305 302 -228.5 164 -228.5"/><text x="233" y="-287.7" font-family="Times,serif" font-size="14" text-anchor="middle">FHE Schemes</text></g><g id="clust7" class="cluster"><title>cluster_poly</title><polygon fill="none" stroke="#000" points="94 -136 94 -212.5 258 -212.5 258 -136 94 -136"/><text x="176" y="-195.2" font-family="Times,serif" font-size="14" text-anchor="middle">Polynomial Dialects</text></g><g id="node1" class="node"><title>Python</title><polygon fill="#fff" stroke="#000" points="271.12 -721.6 216.88 -721.6 216.88 -685.6 271.12 -685.6 271.12 -721.6"/><text x="244" y="-698.55" font-family="Times,serif" font-size="14" text-anchor="middle">Python</text></g><g id="node2" class="node"><title>Polygeist</title><polygon fill="#fff" stroke="#000" points="135.12 -721.6 68.88 -721.6 68.88 -685.6 135.12 -685.6 135.12 -721.6"/><text x="102" y="-698.55" font-family="Times,serif" font-size="14" text-anchor="middle">Polygeist</text></g><g id="node6" class="node"><title>Func</title><polygon fill="#beaed4" stroke="#000" points="95 -637.1 41 -637.1 41 -601.1 95 -601.1 95 -637.1"/><text x="68" y="-614.05" font-family="Times,serif" font-size="14" text-anchor="middle">Func</text></g><g id="edge6" class="edge"><title>Polygeist-&gt;Func</title><path fill="none" stroke="#000" d="M94.79,-685.1C94.13,-683.49 93.43,-681.81 92.71,-680.07"/><polygon fill="#000" stroke="#000" points="96.02 -678.91 88.98 -671 89.55 -681.58 96.02 -678.91"/></g><g id="node3" class="node"><title>TOSA</title><polygon fill="#fff" stroke="#000" points="203 -721.6 149 -721.6 149 -685.6 203 -685.6 203 -721.6"/><text x="176" y="-698.55" font-family="Times,serif" font-size="14" text-anchor="middle">TOSA</text></g><g id="node7" class="node"><title>Memref</title><polygon fill="#beaed4" stroke="#000" points="238.5 -637.1 177.5 -637.1 177.5 -601.1 238.5 -601.1 238.5 -637.1"/><text x="208" y="-614.05" font-family="Times,serif" font-size="14" text-anchor="middle">Memref</text></g><g id="edge5" class="edge"><title>TOSA-&gt;Memref</title><path fill="none" stroke="#000" d="M182.79,-685.1C183.41,-683.49 184.06,-681.81 184.74,-680.07"/><polygon fill="#000" stroke="#000" points="187.9 -681.6 188.25 -671.01 181.37 -679.07 187.9 -681.6"/></g><g id="node4" class="node"><title>Arith</title><polygon fill="#beaed4" stroke="#000" points="307 -637.1 253 -637.1 253 -601.1 307 -601.1 307 -637.1"/><text x="280" y="-614.05" font-family="Times,serif" font-size="14" text-anchor="middle">Arith</text></g><g id="node8" class="node"><title>lower_from_mlir</title><ellipse cx="199" cy="-563.3" fill="#000" stroke="#000" rx="1.8" ry="1.8"/></g><g id="edge1" class="edge"><title>Arith-&gt;lower_from_mlir</title><path fill="none" stroke="#000" d="M256.77,-600.62C253.2,-598.05 249.53,-595.47 246,-593.1 228.21,-581.14 205.57,-568.06 200.19,-564.98"/></g><g id="node9" class="node"><title>Yosys</title><polygon fill="#ff9" stroke="#000" points="316.19 -428.04 316.19 -442.96 294.99 -453.5 265.01 -453.5 243.81 -442.96 243.81 -428.04 265.01 -417.5 294.99 -417.5 316.19 -428.04"/><text x="280" y="-430.45" font-family="Times,serif" font-size="14" text-anchor="middle">Yosys</text></g><g id="node5" class="node"><title>Affine</title><polygon fill="#beaed4" stroke="#000" points="163 -637.1 109 -637.1 109 -601.1 163 -601.1 163 -637.1"/><text x="136" y="-614.05" font-family="Times,serif" font-size="14" text-anchor="middle">Affine</text></g><g id="edge2" class="edge"><title>Affine-&gt;lower_from_mlir</title><path fill="none" stroke="#000" d="M156.28,-600.78C172.4,-587.02 193.02,-569.41 197.92,-565.22"/></g><g id="edge3" class="edge"><title>Func-&gt;lower_from_mlir</title><path fill="none" stroke="#000" d="M89.23,-600.79C93.31,-597.96 97.67,-595.25 102,-593.1 138.18,-575.12 187.65,-566.2 197.32,-564.57"/></g><g id="edge4" class="edge"><title>Memref-&gt;lower_from_mlir</title><path fill="none" stroke="#000" d="M205.1,-600.78C202.84,-587.27 199.96,-570.04 199.19,-565.46"/></g><g id="node10" class="node"><title>Secret</title><g id="a_node10"><a xlink:href="https://heir.dev/docs/dialects/secret/" xlink:title="Secret"><polygon fill="#fff" stroke="#000" points="226 -525.5 172 -525.5 172 -489.5 226 -489.5 226 -525.5"/><text x="199" y="-502.45" font-family="Times,serif" font-size="14" text-anchor="middle">Secret</text></a></g></g><g id="edge7" class="edge"><title>lower_from_mlir-&gt;Secret</title><path fill="none" stroke="#000" d="M199,-561.37C199,-558.27 199,-547.94 199,-537.22"/><polygon fill="#000" stroke="#000" points="202.5 -537.27 199 -527.27 195.5 -537.27 202.5 -537.27"/></g><g id="node11" class="node"><title>Comb</title><g id="a_node11"><a xlink:href="https://heir.dev/docs/dialects/comb/" xlink:title="Comb"><polygon fill="#fff" stroke="#000" points="312 -381.5 258 -381.5 258 -345.5 312 -345.5 312 -381.5"/><text x="285" y="-358.45" font-family="Times,serif" font-size="14" text-anchor="middle">Comb</text></a></g></g><g id="edge9" class="edge"><title>Yosys-&gt;Comb</title><path fill="none" stroke="#000" d="M281.24,-417.2C281.76,-409.91 282.38,-401.23 282.96,-393.04"/><polygon fill="#000" stroke="#000" points="286.45 -393.34 283.67 -383.11 279.47 -392.84 286.45 -393.34"/></g><g id="edge8" class="edge"><title>Secret-&gt;Yosys</title><path fill="none" stroke="#000" d="M219.02,-489.2C229.37,-480.25 242.15,-469.21 253.32,-459.56"/><polygon fill="#000" stroke="#000" points="255.44 -462.35 260.72 -453.16 250.87 -457.05 255.44 -462.35"/></g><g id="node12" class="node"><title>Verilog</title><polygon fill="#7fc97f" stroke="#000" points="50.88 -36 1.12 -36 1.12 0 56.88 0 56.88 -30 50.88 -36"/><polyline fill="none" stroke="#000" points="50.88 -36 50.88 -30"/><polyline fill="none" stroke="#000" points="56.88 -30 50.88 -30"/><text x="29" y="-12.95" font-family="Times,serif" font-size="14" text-anchor="middle">Verilog</text></g><g id="edge10" class="edge"><title>Secret-&gt;Verilog</title><path fill="none" stroke="#000" d="M171.75,-500.57C117.25,-486.93 0,-447.9 0,-364.5 0,-364.5 0,-364.5 0,-161 0,-120.75 11.32,-75.36 19.82,-46.97"/><polygon fill="#000" stroke="#000" points="23.07 -48.29 22.68 -37.7 16.38 -46.22 23.07 -48.29"/></g><g id="node14" class="node"><title>BGV</title><g id="a_node14"><a xlink:href="https://heir.dev/docs/dialects/bgv/" xlink:title="BGV"><polygon fill="#fff" stroke="#000" points="226 -272.5 172 -272.5 172 -236.5 226 -236.5 226 -272.5"/><text x="199" y="-249.45" font-family="Times,serif" font-size="14" text-anchor="middle">BGV</text></a></g></g><g id="edge11" class="edge"><title>Secret-&gt;BGV</title><path fill="none" stroke="#000" d="M199,-489.25C199,-460.46 199,-400.68 199,-348.78"/><polygon fill="#000" stroke="#000" points="202.5 -349.01 199 -339.01 195.5 -349.01 202.5 -349.01"/></g><g id="node15" class="node"><title>CGGI</title><g id="a_node15"><a xlink:href="https://heir.dev/docs/dialects/cggi/" xlink:title="CGGI"><polygon fill="#fff" stroke="#000" points="294 -272.5 240 -272.5 240 -236.5 294 -236.5 294 -272.5"/><text x="267" y="-249.45" font-family="Times,serif" font-size="14" text-anchor="middle">CGGI</text></a></g></g><g id="edge12" class="edge"><title>Comb-&gt;CGGI:ne</title><path fill="none" stroke="#000" d="M293.84,-345.08C301.34,-327.98 309.58,-301.77 300.61,-282.88"/><polygon fill="#000" stroke="#000" points="303.49 -280.9 294.87 -274.74 297.77 -284.93 303.49 -280.9"/></g><g id="node13" class="node"><title>LWE</title><g id="a_node13"><a xlink:href="https://heir.dev/docs/dialects/lwe/" xlink:title="LWE"><polygon fill="#fff" stroke="#000" points="156 -272.5 102 -272.5 102 -236.5 156 -236.5 156 -272.5"/><text x="129" y="-249.45" font-family="Times,serif" font-size="14" text-anchor="middle">LWE</text></a></g></g><g id="node17" class="node"><title>RNS</title><g id="a_node17"><a xlink:href="https://heir.dev/docs/dialects/rns/" xlink:title="RNS"><polygon fill="#fff" stroke="#000" points="156 -180 102 -180 102 -144 156 -144 156 -180"/><text x="129" y="-156.95" font-family="Times,serif" font-size="14" text-anchor="middle">RNS</text></a></g></g><g id="node16" class="node"><title>Polynomial</title><g id="a_node16"><a xlink:href="https://heir.dev/docs/dialects/polynomial/" xlink:title="Polynomial"><polygon fill="#fff" stroke="#000" points="249.5 -180 170.5 -180 170.5 -144 249.5 -144 249.5 -180"/><text x="210" y="-156.95" font-family="Times,serif" font-size="14" text-anchor="middle">Polynomial</text></a></g></g><g id="edge13" class="edge"><title>BGV-&gt;Polynomial</title><path fill="none" stroke="#000" d="M201.12,-236.05C201.58,-232.3 202.08,-228.13 202.62,-223.75"/><polygon fill="#000" stroke="#000" points="206.07 -224.35 203.8 -214 199.12 -223.5 206.07 -224.35"/></g><g id="node18" class="node"><title>OpenFHE</title><g id="a_node18"><a xlink:href="https://heir.dev/docs/dialects/openfhe/" xlink:title="OpenFHE"><polygon fill="#fff" stroke="#000" points="92.38 -108 21.62 -108 21.62 -72 92.38 -72 92.38 -108"/><text x="57" y="-84.95" font-family="Times,serif" font-size="14" text-anchor="middle">OpenFHE</text></a></g></g><g id="edge14" class="edge"><title>BGV-&gt;OpenFHE</title><path fill="none" stroke="#000" d="M186.94,-236.25C181.81,-230.26 175.32,-224.13 168,-220.5 152.59,-212.86 104.15,-223.59 91,-212.5 64.16,-189.86 57.6,-147.94 56.45,-119.76"/><polygon fill="#000" stroke="#000" points="59.95 -119.71 56.27 -109.77 52.95 -119.83 59.95 -119.71"/></g><g id="node24" class="node"><title>lower_from_cggi</title><ellipse cx="292" cy="-162" fill="#000" stroke="#000" rx="1.8" ry="1.8"/></g><g id="edge15" class="edge"><title>CGGI-&gt;lower_from_cggi</title><path fill="none" stroke="#000" d="M271.82,-236.05C278.4,-212.22 289.63,-171.59 291.67,-164.18"/></g><g id="node19" class="node"><title>Standard</title><polygon fill="#beaed4" stroke="#000" points="170 -108 106 -108 106 -72 170 -72 170 -108"/><text x="138" y="-84.95" font-family="Times,serif" font-size="14" text-anchor="middle">Standard</text></g><g id="edge19" class="edge"><title>Polynomial-&gt;Standard</title><path fill="none" stroke="#000" d="M192.2,-143.7C183.72,-135.45 173.41,-125.43 164.07,-116.35"/><polygon fill="#000" stroke="#000" points="166.54 -113.86 156.93 -109.4 161.66 -118.88 166.54 -113.86"/></g><g id="node20" class="node"><title>Jaxite</title><g id="a_node20"><a xlink:href="https://heir.dev/docs/dialects/jaxite/" xlink:title="Jaxite"><polygon fill="#fff" stroke="#000" points="424 -108 370 -108 370 -72 424 -72 424 -108"/><text x="397" y="-84.95" font-family="Times,serif" font-size="14" text-anchor="middle">Jaxite</text></a></g></g><g id="node21" class="node"><title>TfheRust</title><g id="a_node21"><a xlink:href="https://heir.dev/docs/dialects/tfherust/" xlink:title="TfheRust"><polygon fill="#fff" stroke="#000" points="250.12 -108 183.88 -108 183.88 -72 250.12 -72 250.12 -108"/><text x="217" y="-84.95" font-family="Times,serif" font-size="14" text-anchor="middle">TfheRust</text></a></g></g><g id="node22" class="node"><title>TfheRustBool</title><g id="a_node22"><a xlink:href="https://heir.dev/docs/dialects/tfherustbool/" xlink:title="TfheRustBool"><polygon fill="#fff" stroke="#000" points="356.25 -108 263.75 -108 263.75 -72 356.25 -72 356.25 -108"/><text x="310" y="-84.95" font-family="Times,serif" font-size="14" text-anchor="middle">TfheRustBool</text></a></g></g><g id="node23" class="node"><title>LLVM</title><polygon fill="gray" stroke="#000" points="165.12 -36 110.88 -36 110.88 0 165.12 0 165.12 -36"/><text x="138" y="-12.95" font-family="Times,serif" font-size="14" text-anchor="middle">LLVM</text></g><g id="edge20" class="edge"><title>Standard-&gt;LLVM</title><path fill="none" stroke="#000" d="M138,-71.7C138,-64.41 138,-55.73 138,-47.54"/><polygon fill="#000" stroke="#000" points="141.5 -47.62 138 -37.62 134.5 -47.62 141.5 -47.62"/></g><g id="edge16" class="edge"><title>lower_from_cggi-&gt;Jaxite</title><path fill="none" stroke="#000" d="M293.18,-160.21C299.91,-155.73 334.14,-132.91 361.48,-114.68"/><polygon fill="#000" stroke="#000" points="363.17 -117.76 369.55 -109.3 359.29 -111.94 363.17 -117.76"/></g><g id="edge17" class="edge"><title>lower_from_cggi-&gt;TfheRust</title><path fill="none" stroke="#000" d="M290.94,-160.01C285.78,-155.2 262.8,-133.75 243.81,-116.02"/><polygon fill="#000" stroke="#000" points="246.25 -113.51 236.55 -109.24 241.47 -118.63 246.25 -113.51"/></g><g id="edge18" class="edge"><title>lower_from_cggi-&gt;TfheRustBool</title><path fill="none" stroke="#000" d="M292.31,-159.79C293.57,-154.89 298.41,-136.06 302.71,-119.34"/><polygon fill="#000" stroke="#000" points="306.08 -120.31 305.18 -109.76 299.3 -118.57 306.08 -120.31"/></g></g></svg>